<svg xmlns="http://www.w3.org/2000/svg" width="200" height="200" viewBox="0 0 200 200" role="img" aria-label="pi icon vector">
  <path fill="#000" d="
    M47 81.5
    C49 72 54.5 62 63.5 57
    C68 54.5 72.5 54 78 54
    L140 54
    L140 69
    L119 69
    C118.2 74.5 118 80 117.5 86
    C116.9 93.5 116 101 116 107
    C116 115 116.6 121.5 118.7 124.5
    C121.2 128 127 128.5 130.4 125.2
    C133.2 122.5 134.8 118.6 136 116.3
    L141 116.5
    C140.1 123.5 137.2 133.2 132.5 138.4
    C128.1 143.2 122.1 144.8 116 144
    C109.1 143.3 103.6 141 101 136.3
    C98.1 131 99 120.5 100 111
    C100.4 105.5 101 100.2 101.6 96
    L104.1 69
    L86 69
    C85 82.5 84 96.5 82.5 109.5
    C81.1 122.2 79.1 134 76 139
    C73 143.7 68 145.2 62.5 144
    C58 143.1 55 140.8 54 137
    C52.8 132.4 56.2 126 61.7 119
    C67.1 112.1 70.2 101.1 72.5 90
    C74 82 75.1 74.2 76.1 69
    L67 69
    C60.7 69 55.8 73.3 51 82
    L47 82
    Z
  "/>
</svg>
